<svg width="397" height="308" xmlns="http://www.w3.org/2000/svg" xmlns:xlink="http://www.w3.org/1999/xlink" xml:space="preserve" overflow="hidden"><defs><clipPath id="clip0"><path d="M840.847 172 1212.15 172C1219.25 172 1225 175.214 1225 179.179L1225 472.821C1225 476.786 1219.25 480 1212.15 480L840.847 480C833.752 480 828 476.786 828 472.821L828 179.179C828 175.214 833.752 172 840.847 172Z" fill-rule="evenodd" clip-rule="evenodd"/></clipPath></defs><g transform="translate(-828 -172)"><g clip-path="url(#clip0)"><path d="M170.52 302.287C170.458 302.225 169.158 302.102 167.673 301.978 164.918 301.792 161.575 301.452 157.149 300.864 155.849 300.709 154.146 300.647 153.434 300.74 152.134 300.925 148.575 300.09 143.065 298.325 141.115 297.706 136.07 294.828 132.634 292.351 128.238 289.194 120.903 281.27 118.488 277.03 116.26 273.13 111.4 262.977 110.843 261.089 109.264 255.672 108.924 254.248 108.429 251.122 108.088 248.801 107.933 245.52 107.902 240.35 107.902 234.005 107.995 232.334 108.583 228.991 109.388 224.379 110.502 219.519 111.617 215.774 113.814 208.469 119.138 196.738 122.76 191.228 123.688 189.835 124.431 188.628 124.431 188.504 124.431 188.256 122.079 186.028 120.903 185.13L119.974 184.449 118.674 185.749C117.405 187.018 117.312 187.049 115.795 186.864 114.96 186.771 112.979 186.244 111.4 185.718 108.614 184.79 108.49 184.79 107.531 185.285 106.045 186.09 104.219 185.718 100.164 183.768 95.6758 181.602 89.8567 178.135 89.4543 177.361 89.2995 177.051 89.1448 176.309 89.1448 175.72 89.1448 174.482 88.5567 174.049 83.1089 171.17 81.4065 170.273 78.9612 168.849 77.6921 167.982 69.6443 162.596 57.2631 149.844 50.9487 140.434 46.4296 133.686 42.5914 125.36 36.5865 109.264 31.0149 94.3139 26.7125 80.3231 23.8338 67.6324 21.6981 58.1917 21.2028 54.4464 20.7076 43.3652 20.2123 31.9435 20.8004 24.1743 22.5957 18.8504 23.3695 16.5599 25.1648 12.9384 25.7529 12.4741 26.0315 12.2574 30.7983 12.2265 40.858 12.4122 48.9368 12.536 71.2849 12.6598 90.5067 12.6598 122.667 12.6907 125.515 12.7217 126.041 13.186 126.969 14.0527 126.691 15.0122 124.71 17.6432 120.5 23.2457 112.824 36.9889 113.041 38.5365 113.102 38.9389 113.412 39.1866 113.907 39.2485 115.114 39.4032 119.881 40.889 120.624 41.3533 121.429 41.8485 122.265 43.4581 122.265 44.5414 122.265 45.9034 122.667 46.2438 123.843 45.8724 124.431 45.6867 126.01 45.47 127.372 45.3772 129.415 45.2224 130.096 45.0057 131.581 44.139 132.541 43.5819 134.274 42.7152 135.451 42.2819 136.627 41.8176 138.484 41.0437 139.598 40.5485 142.786 39.1556 145.882 38.1341 150.896 36.7722 154.734 35.7508 156.251 35.5031 159.749 35.3174 162.101 35.1936 164.175 34.946 164.392 34.7603 165.073 34.2031 168.539 33.646 170.118 33.8317 171.047 33.9245 171.975 34.3269 172.811 34.946 173.523 35.4722 174.761 36.277 175.566 36.7103 176.928 37.4841 178.723 39.3413 179.93 41.2295 180.24 41.7247 180.456 42.6842 180.456 43.5819L180.456 45.0986 185.471 45.3153C191.383 45.5938 191.29 45.6248 191.816 42.2509 192.28 39.1246 193.147 37.4532 195.747 34.7912 197.79 32.6864 198.038 32.5007 199.214 32.5007 206.704 32.5007 220.757 47.4201 225.214 60.1418 225.988 62.4013 226.05 62.7418 225.741 64.6919 225.338 67.1991 223.883 69.5205 219.674 74.2873 215.464 79.0541 211.162 82.0565 207.571 82.6756 203.238 83.4184 198.842 82.5208 192.992 79.6731 191.29 78.8374 188.937 77.754 187.761 77.2588 186.585 76.7635 185.285 76.0207 184.852 75.6183L184.078 74.9064 175.039 74.9064 166.001 74.9064 164.67 76.9493C162.999 79.5493 159.749 83.5732 159.191 83.7899 158.572 84.0375 158.108 85.2447 157.861 87.2876 157.737 88.2162 156.932 92.5186 156.065 96.8521 155.199 101.155 154.332 105.828 154.146 107.221 153.806 109.821 153.62 110.967 151.856 121.955 151.206 125.917 150.648 130.931 150.432 134.367 150.215 138.267 149.844 141.208 149.348 143.498 148.915 145.355 148.575 147.429 148.575 148.11 148.575 151.113 146.717 158.82 145.758 159.903 145.17 160.522 145.17 160.553 145.851 161.172 147.275 162.442 148.203 162.844 149.844 162.844 151.732 162.875 154.115 162.38 155.353 161.761 155.787 161.513 158.82 160.399 162.039 159.253 165.289 158.108 169.313 156.622 171.016 155.941 175.782 154.084 183.149 152.382 191.661 151.175L199.307 150.06 203.114 152.939C207.85 156.499 219.767 168.292 221.221 170.861 222.8 173.616 223.233 176.401 223.481 184.852 223.481 184.944 225.121 184.975 227.133 184.883 230.229 184.728 230.972 184.79 231.962 185.254 233.138 185.811 235.243 188.225 235.243 189.061 235.243 189.309 235.707 190.299 236.296 191.259 236.884 192.218 237.688 193.828 238.122 194.849 239.484 198.13 241.496 204.692 241.681 206.457 241.774 207.385 242.022 208.438 242.239 208.778 242.455 209.119 242.703 210.171 242.827 211.131 243.074 213.236 242.827 213.545 239.391 215.464L237.193 216.671 237.75 218.405C238.493 220.602 239.669 226.205 240.536 231.56 241.093 234.995 241.217 237.038 241.248 243.446 241.279 250.255 241.186 251.648 240.567 255.053 239.112 263.008 238.586 265.175 237.719 267.094 237.193 268.177 236.791 269.261 236.791 269.508 236.791 270.158 233.665 274.863 231.405 277.649 226.793 283.313 216.393 292.29 211.657 294.704 202.309 299.44 188.535 302.411 175.937 302.411 173.028 302.411 170.582 302.349 170.52 302.287ZM131.674 83.4494C132.789 81.6851 133.717 80.0446 133.717 79.7969 133.717 79.5493 133.872 79.2088 134.027 79.0541 134.336 78.7445 130.405 78.3112 127.155 78.3112 126.01 78.3112 125.979 78.3421 125.979 79.4874 125.979 81.0041 128.641 86.6685 129.384 86.6685 129.508 86.6685 130.56 85.2137 131.674 83.4494Z" transform="matrix(1.00202 0 0 -1 828 479.991)"/><path d="M278.454 258.396C278.175 258.025 277.958 257.56 277.958 257.405 277.958 257.22 276.844 252.824 275.482 247.624 272.851 237.565 271.149 229.919 271.149 228.093 271.149 226.762 271.613 226.298 273.965 225.369 276.411 224.41 277.649 224.564 278.33 225.957 281.332 232.055 288.947 247.965 289.72 249.791 290.278 251.06 290.928 252.391 291.144 252.732 291.732 253.567 291.671 255.177 291.051 255.765 290.742 256.013 289.101 256.601 287.399 257.034 285.697 257.467 283.468 258.086 282.477 258.458 280.094 259.263 279.042 259.263 278.454 258.396Z" transform="matrix(1.00202 0 0 -1 828 479.991)"/><path d="M296.902 248.181C296.592 247.779 293.775 240.103 290.154 229.733 289.07 226.607 288.173 223.667 288.173 223.202 288.173 221.067 292.692 219.395 293.899 221.098 295.044 222.645 300.523 232.395 303.371 237.843 306.559 243.91 306.961 245.21 305.909 246.139 305.135 246.82 299.687 248.553 298.356 248.553 297.737 248.553 297.087 248.367 296.902 248.181Z" transform="matrix(1.00202 0 0 -1 828 479.991)"/><path d="M309.004 236.419C308.633 236.017 307.395 233.076 306.249 229.826 303.804 222.924 303.556 221.036 304.918 220.014 306.033 219.178 308.323 218.931 308.849 219.55 309.902 220.819 315.721 232.705 315.721 233.572 315.721 234.717 315.411 235.026 312.904 236.203 310.645 237.286 309.84 237.317 309.004 236.419Z" transform="matrix(1.00202 0 0 -1 828 479.991)"/><path d="M271.087 220.509C268.951 219.364 267.899 215.309 269.384 213.978 270.468 212.957 271.303 212.647 272.851 212.647 274.089 212.647 274.461 212.802 275.358 213.7 276.287 214.628 276.411 214.938 276.411 216.455 276.411 218.002 276.318 218.25 275.08 219.581 273.625 221.129 272.634 221.376 271.087 220.509Z" transform="matrix(1.00202 0 0 -1 828 479.991)"/><path d="M284.675 216.052C283.592 214.783 283.53 213.05 284.551 212.09 285.139 211.533 285.635 211.409 287.12 211.409 288.761 211.409 289.07 211.502 289.844 212.307 290.525 213.019 290.68 213.421 290.587 214.35 290.463 215.897 289.442 216.64 287.213 216.888 285.573 217.043 285.48 217.012 284.675 216.052Z" transform="matrix(1.00202 0 0 -1 828 479.991)"/><path d="M300.152 213.328C299.533 212.647 299.44 210.481 299.997 209.924 300.214 209.707 301.018 209.552 301.792 209.552 303.495 209.552 304.268 210.202 304.268 211.657 304.268 213.483 301.359 214.659 300.152 213.328Z" transform="matrix(1.00202 0 0 -1 828 479.991)"/><path d="M269.446 166.713C267.837 166.001 266.939 164.67 264.958 160.182 261.677 152.784 258.179 141.208 254.929 127.062 254.496 125.205 253.32 120.036 252.298 115.61 249.574 103.755 248.274 97.2545 245.024 79.3946 240.01 51.8154 239.731 49.8034 238.957 36.0603 238.803 33.1817 238.493 29.4363 238.307 27.7339L237.936 24.6696 183.242 24.8553C122.048 25.1029 127.619 25.3196 127.898 22.7814 127.991 22.0386 128.424 20.7076 128.858 19.779 129.291 18.8504 129.786 17.6123 129.941 17.0242 130.498 15.1979 131.767 12.3503 132.262 11.855 132.696 11.4217 136.131 11.3907 166.28 11.7622 201.752 12.1955 253.258 12.0407 259.232 11.4836 262.296 11.205 267.991 10.7717 280.589 9.90497 288.389 9.37877 294.425 9.00734 300.399 8.66685 303.649 8.51209 309.066 8.20256 312.471 8.01684 316.835 7.80017 319.652 7.80017 322.066 8.01684 323.955 8.20256 327.081 8.35732 329.062 8.35732 332.095 8.35732 332.714 8.45018 333.117 8.91448 333.364 9.19305 334.107 11.6693 334.726 14.3932 338.657 30.953 339.864 35.0388 348.996 63.4537 354.35 80.0446 356.981 87.8138 361.346 99.7307 366.67 114.279 368.125 118.086 369.734 121.645 372.334 127.403 373.139 130.9 373.356 136.905 373.418 138.948 373.325 139.382 372.829 139.877 371.839 140.805 348.624 149.844 338.317 153.31 324.14 158.077 301.266 164.175 291.113 165.877 283.685 167.146 271.489 167.611 269.446 166.713Z" transform="matrix(1.00202 0 0 -1 828 479.991)"/></g></g></svg>